<svg width="1180" height="610" viewBox="0 0 1180 610" xmlns="http://www.w3.org/2000/svg">
<defs>
  <style>
    .pill:hover .pillbg{ filter:url(#pillGlowHover); }
    .pill:hover .pilltxt{ fill:#F8FAFC; }
    .pill{ cursor:default; }
    text{ font-family:'Segoe UI','SF Mono',Menlo,Consolas,monospace; }
  </style>

  <linearGradient id="bgGrad" x1="0" y1="0" x2="1" y2="1">
    <stop offset="0%" stop-color="#030712"/>
    <stop offset="100%" stop-color="#050914"/>
  </linearGradient>

  <linearGradient id="accentGrad" x1="0%" y1="0%" x2="100%" y2="0%">
    <stop offset="0%" stop-color="#7C3AED"/>
    <stop offset="50%" stop-color="#22D3EE"/>
    <stop offset="100%" stop-color="#10B981"/>
    <animate attributeName="x1" values="0%;100%;0%" dur="8s" repeatCount="indefinite"/>
    <animate attributeName="x2" values="100%;200%;100%" dur="8s" repeatCount="indefinite"/>
  </linearGradient>

  <linearGradient id="asciiGrad" x1="0%" y1="0%" x2="100%" y2="100%">
    <stop offset="0%" stop-color="#22D3EE"/>
    <stop offset="50%" stop-color="#7C3AED"/>
    <stop offset="100%" stop-color="#22D3EE"/>
    <animate attributeName="x1" values="-20%;120%;-20%" dur="6s" repeatCount="indefinite"/>
    <animate attributeName="x2" values="80%;220%;80%" dur="6s" repeatCount="indefinite"/>
  </linearGradient>

  <radialGradient id="glowPurple" cx="20%" cy="20%" r="55%">
    <stop offset="0%" stop-color="#7C3AED" stop-opacity="0.35"/>
    <stop offset="100%" stop-color="#7C3AED" stop-opacity="0"/>
    <animate attributeName="cx" values="15%;30%;15%" dur="14s" repeatCount="indefinite"/>
  </radialGradient>
  <radialGradient id="glowCyan" cx="85%" cy="15%" r="50%">
    <stop offset="0%" stop-color="#22D3EE" stop-opacity="0.28"/>
    <stop offset="100%" stop-color="#22D3EE" stop-opacity="0"/>
    <animate attributeName="cy" values="10%;25%;10%" dur="11s" repeatCount="indefinite"/>
  </radialGradient>
  <radialGradient id="glowEmerald" cx="60%" cy="90%" r="55%">
    <stop offset="0%" stop-color="#10B981" stop-opacity="0.22"/>
    <stop offset="100%" stop-color="#10B981" stop-opacity="0"/>
    <animate attributeName="cx" values="50%;70%;50%" dur="17s" repeatCount="indefinite"/>
  </radialGradient>

  <filter id="softGlow" x="-60%" y="-60%" width="220%" height="220%">
    <feGaussianBlur stdDeviation="4.2" result="b"/>
    <feMerge><feMergeNode in="b"/><feMergeNode in="SourceGraphic"/></feMerge>
  </filter>
  <filter id="asciiGlow" x="-60%" y="-60%" width="220%" height="220%">
    <feGaussianBlur stdDeviation="2.6" result="b"/>
    <feMerge><feMergeNode in="b"/><feMergeNode in="b"/><feMergeNode in="SourceGraphic"/></feMerge>
  </filter>
  <filter id="pillGlow" x="-50%" y="-50%" width="200%" height="200%">
    <feGaussianBlur stdDeviation="1.6"/>
  </filter>
  <filter id="pillGlowHover" x="-80%" y="-80%" width="260%" height="260%">
    <feGaussianBlur stdDeviation="4.5"/>
  </filter>
  <filter id="noiseF" x="0" y="0" width="100%" height="100%">
    <feTurbulence type="fractalNoise" baseFrequency="0.9" numOctaves="2" stitchTiles="stitch" result="n"/>
    <feColorMatrix in="n" type="matrix" values="0 0 0 0 1  0 0 0 0 1  0 0 0 0 1  0 0 0 0.02 0"/>
  </filter>

  <clipPath id="canvasClip"><rect x="0" y="0" width="1180" height="610" rx="26"/></clipPath>
  <clipPath id="leftClip"><rect x="24" y="24" width="424" height="562" rx="20"/></clipPath>
  <clipPath id="rightClip"><rect x="466" y="24" width="690" height="562" rx="20"/></clipPath>
</defs>

<g clip-path="url(#canvasClip)">
<rect width="1180" height="610" fill="url(#bgGrad)"/>
<rect width="1180" height="610" fill="url(#glowPurple)"/>
<rect width="1180" height="610" fill="url(#glowCyan)"/>
<rect width="1180" height="610" fill="url(#glowEmerald)"/>
<rect width="1180" height="610" filter="url(#noiseF)" opacity="0.5"/>

<!-- floating particles -->
<g fill="#7C3AED">
  <circle cx="120" cy="500" r="1.6" opacity="0.5"><animate attributeName="cy" values="500;60;500" dur="18s" repeatCount="indefinite"/><animate attributeName="opacity" values="0;0.6;0" dur="18s" repeatCount="indefinite"/></circle>
  <circle cx="360" cy="560" r="1.2" fill="#22D3EE" opacity="0.5"><animate attributeName="cy" values="560;40;560" dur="22s" repeatCount="indefinite"/><animate attributeName="opacity" values="0;0.6;0" dur="22s" repeatCount="indefinite"/></circle>
  <circle cx="900" cy="580" r="1.4" fill="#10B981" opacity="0.5"><animate attributeName="cy" values="580;80;580" dur="20s" repeatCount="indefinite"/><animate attributeName="opacity" values="0;0.5;0" dur="20s" repeatCount="indefinite"/></circle>
  <circle cx="1050" cy="500" r="1.3" fill="#7C3AED" opacity="0.4"><animate attributeName="cy" values="500;100;500" dur="16s" repeatCount="indefinite"/><animate attributeName="opacity" values="0;0.5;0" dur="16s" repeatCount="indefinite"/></circle>
  <circle cx="700" cy="560" r="1.1" fill="#22D3EE" opacity="0.4"><animate attributeName="cy" values="560;70;560" dur="24s" repeatCount="indefinite"/><animate attributeName="opacity" values="0;0.5;0" dur="24s" repeatCount="indefinite"/></circle>
</g>

<!-- outer border shimmer -->
<rect x="2" y="2" width="1176" height="606" rx="24" fill="none" stroke="url(#accentGrad)" stroke-width="1.4" opacity="0.55"/>

<!-- ============ LEFT PANEL ============ -->
<g>
  <rect x="24" y="24" width="424" height="562" rx="20" fill="#0F172A" fill-opacity="0.55" stroke="rgba(255,255,255,0.08)" stroke-width="1"/>
  <rect x="24" y="24" width="424" height="562" rx="20" fill="none" stroke="url(#accentGrad)" stroke-width="1" opacity="0.5">
    <animate attributeName="opacity" values="0.25;0.6;0.25" dur="5s" repeatCount="indefinite"/>
  </rect>
  <!-- glass reflection -->
  <path d="M28 30 L200 30 L60 586 L28 586 Z" fill="#ffffff" opacity="0.03" clip-path="url(#leftClip)"/>

  <g clip-path="url(#leftClip)">
  <!-- floating ascii block -->
  <g font-family="Menlo,Consolas,monospace" font-size="12.2" fill="url(#asciiGrad)" filter="url(#asciiGlow)">
    <animateTransform attributeName="transform" type="translate" values="0 0; 0 -6; 0 0" dur="5s" repeatCount="indefinite"/>

    <text x="60" y="90"  opacity="0"><tspan>   .-''''''-.</tspan><animate attributeName="opacity" begin="0.2s" dur="0.5s" to="1" fill="freeze"/></text>
    <text x="60" y="106" opacity="0"><tspan> .'  _    _  '.</tspan><animate attributeName="opacity" begin="0.5s" dur="0.5s" to="1" fill="freeze"/></text>
    <text x="60" y="122" opacity="0"><tspan>/   (o)  (o)   \</tspan><animate attributeName="opacity" begin="0.8s" dur="0.5s" to="1" fill="freeze"/></text>
    <text x="60" y="138" opacity="0"><tspan>|      __       |</tspan><animate attributeName="opacity" begin="1.1s" dur="0.5s" to="1" fill="freeze"/></text>
    <text x="60" y="154" opacity="0"><tspan>\    \____/    /</tspan><animate attributeName="opacity" begin="1.4s" dur="0.5s" to="1" fill="freeze"/></text>
    <text x="60" y="170" opacity="0"><tspan> '.__________.'</tspan><animate attributeName="opacity" begin="1.7s" dur="0.5s" to="1" fill="freeze"/></text>
    <text x="60" y="192" opacity="0"><tspan>  /|  ____  |\</tspan><animate attributeName="opacity" begin="2.0s" dur="0.5s" to="1" fill="freeze"/></text>
    <text x="60" y="208" opacity="0"><tspan> / |_/ &amp;&amp; \_| \</tspan><animate attributeName="opacity" begin="2.3s" dur="0.5s" to="1" fill="freeze"/></text>
    <text x="60" y="224" opacity="0"><tspan>|  |  code  |  |</tspan><animate attributeName="opacity" begin="2.6s" dur="0.5s" to="1" fill="freeze"/></text>
    <text x="60" y="240" opacity="0"><tspan>|  |________|  |</tspan><animate attributeName="opacity" begin="2.9s" dur="0.5s" to="1" fill="freeze"/></text>
    <text x="60" y="256" opacity="0"><tspan> \____________/</tspan><animate attributeName="opacity" begin="3.2s" dur="0.5s" to="1" fill="freeze"/></text>
    <text x="60" y="278" opacity="0"><tspan>  ./  |  |  \.</tspan><animate attributeName="opacity" begin="3.5s" dur="0.5s" to="1" fill="freeze"/></text>
    <text x="60" y="294" opacity="0"><tspan> /    |  |    \</tspan><animate attributeName="opacity" begin="3.8s" dur="0.5s" to="1" fill="freeze"/></text>
    <text x="60" y="310" opacity="0"><tspan>[_____|  |_____]</tspan><animate attributeName="opacity" begin="4.1s" dur="0.5s" to="1" fill="freeze"/></text>
    <text x="60" y="326" opacity="0"><tspan>   [_]    [_]</tspan><animate attributeName="opacity" begin="4.4s" dur="0.5s" to="1" fill="freeze"/></text>
  </g>

  <!-- scanline -->
  <rect x="24" y="0" width="424" height="3" fill="#22D3EE" opacity="0.25">
    <animate attributeName="y" values="24;586;24" dur="4s" repeatCount="indefinite"/>
  </rect>

  <!-- cursor blink under ascii -->
  <rect x="60" y="335" width="9" height="14" fill="#22D3EE" opacity="0">
    <animate attributeName="opacity" values="0;1;1;0" keyTimes="0;0.1;0.5;0.6" begin="4.6s" dur="1.2s" repeatCount="indefinite"/>
  </rect>

  <text x="60" y="380" font-size="13" fill="#94A3B8" font-family="Menlo,monospace" opacity="0">
    &gt; system.status : online_
    <animate attributeName="opacity" begin="5s" dur="1s" to="1" fill="freeze"/>
  </text>
  <text x="60" y="404" font-size="12.5" fill="url(#asciiGrad)" font-family="Menlo,monospace" opacity="0">
    &gt; render(ascii_portrait)
    <animate attributeName="opacity" begin="5.4s" dur="1s" to="1" fill="freeze"/>
  </text>

  <!-- decorative footer bracket -->
  <text x="60" y="540" font-size="26" font-weight="700" fill="url(#accentGrad)" opacity="0">
    &lt;/ dev&gt;
    <animate attributeName="opacity" begin="6s" dur="1.2s" to="1" fill="freeze"/>
  </text>
  <text x="60" y="562" font-size="12" fill="#94A3B8" opacity="0">
    building things, one commit at a time
    <animate attributeName="opacity" begin="6.4s" dur="1.2s" to="1" fill="freeze"/>
  </text>
  </g>
</g>

<!-- ============ RIGHT PANEL (terminal) ============ -->
<g>
  <rect x="466" y="24" width="690" height="562" rx="20" fill="#0F172A" fill-opacity="0.55" stroke="rgba(255,255,255,0.08)" stroke-width="1"/>
  <rect x="466" y="24" width="690" height="562" rx="20" fill="none" stroke="url(#accentGrad)" stroke-width="1" opacity="0.45">
    <animate attributeName="opacity" values="0.2;0.55;0.2" dur="6s" repeatCount="indefinite"/>
  </rect>
  <path d="M470 30 L640 30 L500 586 L470 586 Z" fill="#ffffff" opacity="0.03" clip-path="url(#rightClip)"/>

  <g clip-path="url(#rightClip)">
    <!-- title bar -->
    <rect x="466" y="24" width="690" height="38" rx="20" fill="#0B1220" fill-opacity="0.6"/>
    <circle cx="494" cy="43" r="5.5" fill="#FF5F56"/>
    <circle cx="512" cy="43" r="5.5" fill="#FFBD2E"/>
    <circle cx="530" cy="43" r="5.5" fill="#27C93F"/>
    <text x="1135" y="47" font-size="11.5" fill="#94A3B8" text-anchor="end" font-family="Menlo,monospace">~/senthamil — zsh</text>

    <!-- greeting -->
    <text x="502" y="102" font-size="26" font-weight="600" fill="#F8FAFC" font-family="Menlo,monospace" opacity="0">
      Hi <tspan fill="#FBBF24">👋</tspan>, I'm <tspan fill="url(#accentGrad)" font-weight="700">Senthamil Selvan J</tspan>
      <animate attributeName="opacity" begin="0.4s" dur="0.8s" to="1" fill="freeze"/>
    </text>

    <!-- rotating role -->
    <text x="502" y="140" font-size="18" font-family="Menlo,monospace" fill="#22D3EE" filter="url(#softGlow)">
      <tspan>&gt; </tspan><tspan id="roleA">Frontend Engineer</tspan>
      <animate attributeName="opacity" values="1;1;0;0" keyTimes="0;0.18;0.2;1" dur="10s" begin="1.4s" repeatCount="indefinite"/>
    </text>
    <text x="502" y="140" font-size="18" font-family="Menlo,monospace" fill="#22D3EE" filter="url(#softGlow)" opacity="0">
      <tspan>&gt; </tspan><tspan>Full Stack Developer</tspan>
      <animate attributeName="opacity" values="0;0;1;1;0;0" keyTimes="0;0.2;0.22;0.38;0.4;1" dur="10s" begin="1.4s" repeatCount="indefinite"/>
    </text>
    <text x="502" y="140" font-size="18" font-family="Menlo,monospace" fill="#22D3EE" filter="url(#softGlow)" opacity="0">
      <tspan>&gt; </tspan><tspan>Open Source Contributor</tspan>
      <animate attributeName="opacity" values="0;0;1;1;0;0" keyTimes="0;0.4;0.42;0.58;0.6;1" dur="10s" begin="1.4s" repeatCount="indefinite"/>
    </text>
    <text x="502" y="140" font-size="18" font-family="Menlo,monospace" fill="#22D3EE" filter="url(#softGlow)" opacity="0">
      <tspan>&gt; </tspan><tspan>UI Engineer</tspan>
      <animate attributeName="opacity" values="0;0;1;1;0;0" keyTimes="0;0.6;0.62;0.78;0.8;1" dur="10s" begin="1.4s" repeatCount="indefinite"/>
    </text>
    <text x="502" y="140" font-size="18" font-family="Menlo,monospace" fill="#22D3EE" filter="url(#softGlow)" opacity="0">
      <tspan>&gt; </tspan><tspan>AI Enthusiast</tspan>
      <animate attributeName="opacity" values="0;0;1;1;0" keyTimes="0;0.8;0.82;0.98;1" dur="10s" begin="1.4s" repeatCount="indefinite"/>
    </text>
    <rect x="708" y="128" width="8" height="16" fill="#22D3EE">
      <animate attributeName="opacity" values="1;0;1" dur="0.9s" repeatCount="indefinite"/>
    </rect>

    <!-- info lines sequential reveal -->
<g font-family="Menlo,monospace" font-size="14" fill="#F8FAFC">
  <text x="502" y="188" opacity="0"><tspan fill="#7C3AED">📍 </tspan><tspan fill="#94A3B8">Location  </tspan> Chennai, India
    <animate attributeName="opacity" begin="2.0s" dur="0.7s" to="1" fill="freeze"/></text>

  <text x="502" y="216" opacity="0"><tspan fill="#22D3EE">🎓 </tspan><tspan fill="#94A3B8">Education </tspan> B.Tech AI &amp; DS
    <animate attributeName="opacity" begin="2.5s" dur="0.7s" to="1" fill="freeze"/></text> 

  <text x="502" y="244" opacity="0"><tspan fill="#10B981">🎯 </tspan><tspan fill="#94A3B8">Focus     </tspan> Full Stack &amp; AI
    <animate attributeName="opacity" begin="3.0s" dur="0.7s" to="1" fill="freeze"/></text>

  <text x="502" y="272" opacity="0"><tspan fill="#7C3AED">🌐 </tspan><tspan fill="#94A3B8">Portfolio </tspan> Coming Soon
    <animate attributeName="opacity" begin="3.5s" dur="0.7s" to="1" fill="freeze"/></text>

  <text x="502" y="300" opacity="0"><tspan fill="#22D3EE">✉️ </tspan><tspan fill="#94A3B8">Email     </tspan> your-email@example.com
    <animate attributeName="opacity" begin="4.0s" dur="0.7s" to="1" fill="freeze"/></text>
</g>

    <!-- skills header -->
    <text x="502" y="340" font-size="13" fill="#94A3B8" font-family="Menlo,monospace" opacity="0">
      &gt; skills --list
      <animate attributeName="opacity" begin="4.6s" dur="0.6s" to="1" fill="freeze"/>
    </text>

<!-- skill pills -->
<g font-family="Segoe UI, sans-serif" font-size="12.5" font-weight="600">

  <!-- Row 1 -->
  <g class="pill" opacity="0">
    <animate attributeName="opacity" begin="5.0s" dur="0.5s" to="1" fill="freeze"/>
    <rect class="pillbg" x="502" y="356" width="82" height="30" rx="15" fill="#10B981" fill-opacity="0.15" stroke="#10B981" stroke-width="1" filter="url(#pillGlow)"/>
    <text class="pilltxt" x="543" y="376" fill="#6EE7B7" text-anchor="middle">Python</text>
  </g>

  <g class="pill" opacity="0">
    <animate attributeName="opacity" begin="5.1s" dur="0.5s" to="1" fill="freeze"/>
    <rect class="pillbg" x="592" y="356" width="70" height="30" rx="15" fill="#7C3AED" fill-opacity="0.15" stroke="#7C3AED" stroke-width="1" filter="url(#pillGlow)"/>
    <text class="pilltxt" x="627" y="376" fill="#C4B5FD" text-anchor="middle">Java</text>
  </g>

  <g class="pill" opacity="0">
    <animate attributeName="opacity" begin="5.2s" dur="0.5s" to="1" fill="freeze"/>
    <rect class="pillbg" x="670" y="356" width="70" height="30" rx="15" fill="#22D3EE" fill-opacity="0.15" stroke="#22D3EE" stroke-width="1" filter="url(#pillGlow)"/>
    <text class="pilltxt" x="705" y="376" fill="#A5F3FC" text-anchor="middle">HTML</text>
  </g>

  <g class="pill" opacity="0">
    <animate attributeName="opacity" begin="5.3s" dur="0.5s" to="1" fill="freeze"/>
    <rect class="pillbg" x="748" y="356" width="66" height="30" rx="15" fill="#10B981" fill-opacity="0.15" stroke="#10B981" stroke-width="1" filter="url(#pillGlow)"/>
    <text class="pilltxt" x="781" y="376" fill="#6EE7B7" text-anchor="middle">CSS</text>
  </g>

  <g class="pill" opacity="0">
    <animate attributeName="opacity" begin="5.4s" dur="0.5s" to="1" fill="freeze"/>
    <rect class="pillbg" x="822" y="356" width="98" height="30" rx="15" fill="#7C3AED" fill-opacity="0.15" stroke="#7C3AED" stroke-width="1" filter="url(#pillGlow)"/>
    <text class="pilltxt" x="871" y="376" fill="#C4B5FD" text-anchor="middle">JavaScript</text>
  </g>

  <!-- Row 2 -->
  <g class="pill" opacity="0">
    <animate attributeName="opacity" begin="5.5s" dur="0.5s" to="1" fill="freeze"/>
    <rect class="pillbg" x="502" y="396" width="70" height="30" rx="15" fill="#22D3EE" fill-opacity="0.15" stroke="#22D3EE" stroke-width="1" filter="url(#pillGlow)"/>
    <text class="pilltxt" x="537" y="416" fill="#A5F3FC" text-anchor="middle">React</text>
  </g>

  <g class="pill" opacity="0">
    <animate attributeName="opacity" begin="5.6s" dur="0.5s" to="1" fill="freeze"/>
    <rect class="pillbg" x="580" y="396" width="88" height="30" rx="15" fill="#10B981" fill-opacity="0.15" stroke="#10B981" stroke-width="1" filter="url(#pillGlow)"/>
    <text class="pilltxt" x="624" y="416" fill="#6EE7B7" text-anchor="middle">Node.js</text>
  </g>

  <g class="pill" opacity="0">
    <animate attributeName="opacity" begin="5.7s" dur="0.5s" to="1" fill="freeze"/>
    <rect class="pillbg" x="676" y="396" width="66" height="30" rx="15" fill="#7C3AED" fill-opacity="0.15" stroke="#7C3AED" stroke-width="1" filter="url(#pillGlow)"/>
    <text class="pilltxt" x="709" y="416" fill="#C4B5FD" text-anchor="middle">Git</text>
  </g>

  <g class="pill" opacity="0">
    <animate attributeName="opacity" begin="5.8s" dur="0.5s" to="1" fill="freeze"/>
    <rect class="pillbg" x="750" y="396" width="82" height="30" rx="15" fill="#22D3EE" fill-opacity="0.15" stroke="#22D3EE" stroke-width="1" filter="url(#pillGlow)"/>
    <text class="pilltxt" x="791" y="416" fill="#A5F3FC" text-anchor="middle">Figma</text>
  </g>

  <g class="pill" opacity="0">
    <animate attributeName="opacity" begin="5.9s" dur="0.5s" to="1" fill="freeze"/>
    <rect class="pillbg" x="840" y="396" width="82" height="30" rx="15" fill="#10B981" fill-opacity="0.15" stroke="#10B981" stroke-width="1" filter="url(#pillGlow)"/>
    <text class="pilltxt" x="881" y="416" fill="#6EE7B7" text-anchor="middle">Canva</text>
  </g>

</g>
    <!-- divider -->
    <line x1="502" y1="452" x2="1120" y2="452" stroke="rgba(255,255,255,0.08)" stroke-width="1"/>

    <!-- social icons -->
    <g opacity="0">
      <animate attributeName="opacity" begin="6.4s" dur="0.8s" to="1" fill="freeze"/>

      <g>
        <circle cx="524" cy="500" r="22" fill="rgba(124,58,237,0.12)" stroke="#7C3AED" stroke-width="1" filter="url(#pillGlow)">
          <animate attributeName="r" values="22;23.5;22" dur="3s" repeatCount="indefinite"/>
        </circle>
        <path d="M524 488c-7 0-12.5 5.5-12.5 12.5 0 5.6 3.6 10.3 8.6 12 0.6.1 0.9-.3.9-.6v-2.2c-3.5.8-4.3-1.5-4.3-1.5-.6-1.4-1.4-1.8-1.4-1.8-1.2-.8.1-.8.1-.8 1.3.1 2 1.3 2 1.3 1.2 2 3 1.4 3.8 1.1.1-.9.5-1.4.9-1.7-2.8-.3-5.7-1.4-5.7-6.2 0-1.4.5-2.5 1.3-3.4-.1-.3-.6-1.6.1-3.3 0 0 1-.3 3.4 1.3a11.8 11.8 0 0 1 6.2 0c2.4-1.6 3.4-1.3 3.4-1.3.7 1.7.2 3 .1 3.3.8.9 1.3 2 1.3 3.4 0 4.8-2.9 5.9-5.7 6.2.5.4.9 1.2.9 2.4v3.6c0 .3.3.7.9.6 5-1.7 8.6-6.4 8.6-12C536.5 493.5 531 488 524 488z" fill="#F8FAFC"/>
      </g>
      <g>
        <circle cx="586" cy="500" r="22" fill="rgba(34,211,238,0.12)" stroke="#22D3EE" stroke-width="1" filter="url(#pillGlow)">
          <animate attributeName="r" values="22;23.5;22" dur="3.4s" repeatCount="indefinite"/>
        </circle>
        <path d="M577 493h5.5v3c1-1.9 3.2-3.3 6-3.3 6.4 0 7.5 4 7.5 9.3v10h-5.7v-8.8c0-2.1 0-4.8-3-4.8-3 0-3.4 2.3-3.4 4.7v8.9H577z M573.3 493h5.7v19h-5.7z M576.2 484.5a3.3 3.3 0 1 1 0 6.6 3.3 3.3 0 0 1 0-6.6z" fill="#F8FAFC"/>
      </g>
      <g>
        <circle cx="648" cy="500" r="22" fill="rgba(16,185,129,0.12)" stroke="#10B981" stroke-width="1" filter="url(#pillGlow)">
          <animate attributeName="r" values="22;23.5;22" dur="3.8s" repeatCount="indefinite"/>
        </circle>
        <path d="M660 493.5c-.9.4-1.8.7-2.8.8a4.9 4.9 0 0 0 2.1-2.7c-1 .6-2 1-3.1 1.2a4.8 4.8 0 0 0-8.2 4.4 13.7 13.7 0 0 1-10-5.1 4.8 4.8 0 0 0 1.5 6.4 4.7 4.7 0 0 1-2.2-.6v.1c0 2.3 1.6 4.2 3.8 4.7a4.9 4.9 0 0 1-2.2.1 4.8 4.8 0 0 0 4.5 3.3 9.7 9.7 0 0 1-6 2.1 9.9 9.9 0 0 1-1.1-.1 13.7 13.7 0 0 0 7.4 2.2c8.9 0 13.7-7.4 13.7-13.7v-.6c1-.7 1.8-1.6 2.6-2.5z" fill="#F8FAFC"/>
      </g>
      <g>
        <circle cx="710" cy="500" r="22" fill="rgba(124,58,237,0.12)" stroke="#7C3AED" stroke-width="1" filter="url(#pillGlow)">
          <animate attributeName="r" values="22;23.5;22" dur="4.2s" repeatCount="indefinite"/>
        </circle>
        <circle cx="710" cy="500" r="8.5" fill="none" stroke="#F8FAFC" stroke-width="1.6"/>
        <path d="M702 500h16 M710 492c2.2 2.2 3.4 5 3.4 8s-1.2 5.8-3.4 8 M710 492c-2.2 2.2-3.4 5-3.4 8s1.2 5.8 3.4 8" fill="none" stroke="#F8FAFC" stroke-width="1.2"/>
      </g>

      <text x="420" y="354" font-family="Menlo,monospace" font-size="11" fill="#94A3B8" text-anchor="middle" opacity="0.85">GitHub · LinkedIn · Twitter · Portfolio</text>
</g>
    </g>
  </g>
</g>

</g>
</svg>
